<?xml version="1.0" encoding="UTF-8"?>
<svg version="1.1" xmlns="http://www.w3.org/2000/svg" width="60" height="60">
<path d="M0 0 C8.85938813 4.82777365 13.84508032 10.97274096 17 20.4375 C17.79432533 32.02683675 17.21394596 40.40725758 9.75 49.75 C4.90676697 54.98987711 -1.32621083 58.18570097 -8.4765625 58.67578125 C-19.96017429 58.98536121 -27.58918228 57.40188132 -36.2734375 49.375 C-43.19608608 41.60659797 -43.63804134 32.26201566 -43.17480469 22.35058594 C-42.47958821 14.74204358 -37.55472941 8.38748065 -32 3.4375 C-22.96309708 -2.31023605 -10.12505099 -4.15659988 0 0 Z " fill="#ECD5C7" transform="translate(43,1.5625)"/>
<path d="M0 0 C1.3096875 0.00322266 2.619375 0.00644531 3.96875 0.00976562 C5.2784375 -0.00634766 6.588125 -0.02246094 7.9375 -0.0390625 C9.1853125 -0.03970703 10.433125 -0.04035156 11.71875 -0.04101562 C12.86859375 -0.04399658 14.0184375 -0.04697754 15.203125 -0.05004883 C16.57210937 0.13424683 16.57210937 0.13424683 17.96875 0.32226562 C19.96875 3.32226562 19.96875 3.32226562 19.96875 7.32226562 C19.31277832 7.34208496 18.65680664 7.3619043 17.98095703 7.38232422 C15.01813931 7.4773907 12.05604468 7.58714315 9.09375 7.69726562 C7.54494141 7.74367188 7.54494141 7.74367188 5.96484375 7.79101562 C4.48564453 7.84902344 4.48564453 7.84902344 2.9765625 7.90820312 C2.06535645 7.93962402 1.15415039 7.97104492 0.21533203 8.00341797 C-2.23056186 8.12109074 -2.23056186 8.12109074 -4.03125 10.32226562 C-7.10400391 10.54931641 -7.10400391 10.54931641 -11.0078125 10.51757812 C-11.69306 10.51474823 -12.3783075 10.51191833 -13.08432007 10.50900269 C-15.27514027 10.49779844 -17.46555316 10.47269421 -19.65625 10.44726562 C-21.1406191 10.4372361 -22.6249946 10.4281102 -24.109375 10.41992188 C-27.75013261 10.39785857 -31.39065156 10.36332738 -35.03125 10.32226562 C-35.15625 7.94726562 -35.15625 7.94726562 -35.03125 5.32226562 C-32.55237856 2.84339418 -31.73181622 3.05312824 -28.3125 2.97851562 C-27.38050781 2.94886719 -26.44851562 2.91921875 -25.48828125 2.88867188 C-23.51692708 2.84440104 -21.54557292 2.80013021 -19.57421875 2.75585938 C-18.64222656 2.72621094 -17.71023437 2.6965625 -16.75 2.66601562 C-15.89341797 2.64732422 -15.03683594 2.62863281 -14.15429688 2.609375 C-9.24823136 1.94590524 -5.8401094 0.03318244 0 0 Z " fill="#15161C" transform="translate(37.03125,17.677734375)"/>
<path d="M0 0 C1.28825684 0.01047363 2.57651367 0.02094727 3.90380859 0.03173828 C4.93167984 0.03598312 4.93167984 0.03598312 5.98031616 0.04031372 C8.17113636 0.05151797 10.36154925 0.07662219 12.55224609 0.10205078 C14.03661519 0.1120803 15.5209907 0.1212062 17.00537109 0.12939453 C20.6461287 0.15145784 24.28664766 0.18598903 27.92724609 0.22705078 C27.05224609 6.10205078 27.05224609 6.10205078 25.92724609 7.22705078 C24.39042175 7.35980283 22.84810543 7.43033252 21.30615234 7.47314453 C20.3709375 7.50601563 19.43572266 7.53888672 18.47216797 7.57275391 C16.48790578 7.63382812 14.50352399 7.69113534 12.51904297 7.74462891 C11.58253906 7.77878906 10.64603516 7.81294922 9.68115234 7.84814453 C8.38673218 7.88572876 8.38673218 7.88572876 7.06616211 7.92407227 C4.71509093 8.03857545 4.71509093 8.03857545 2.92724609 10.22705078 C-1.72233366 10.68880725 -6.40291666 10.55104152 -11.07275391 10.53955078 C-12.38244141 10.55566406 -13.69212891 10.57177734 -15.04150391 10.58837891 C-16.28931641 10.58902344 -17.53712891 10.58966797 -18.82275391 10.59033203 C-19.97259766 10.59331299 -21.12244141 10.59629395 -22.30712891 10.59936523 C-23.21978516 10.47650146 -24.13244141 10.3536377 -25.07275391 10.22705078 C-27.07275391 7.22705078 -27.07275391 7.22705078 -27.07275391 3.22705078 C-26.08879639 3.19732178 -26.08879639 3.19732178 -25.08496094 3.16699219 C-22.12214322 3.07192571 -19.16004859 2.96217326 -16.19775391 2.85205078 C-14.64894531 2.80564453 -14.64894531 2.80564453 -13.06884766 2.75830078 C-11.58964844 2.70029297 -11.58964844 2.70029297 -10.08056641 2.64111328 C-8.71375732 2.59398193 -8.71375732 2.59398193 -7.31933594 2.54589844 C-3.98393255 2.07251908 -3.60477536 0.26636271 0 0 Z " fill="#14151B" transform="translate(30.07275390625,31.77294921875)"/>
<path d="M0 0 C1.49249268 0.01571045 1.49249268 0.01571045 3.01513672 0.03173828 C4.6296875 0.04140625 4.6296875 0.04140625 6.27685547 0.05126953 C7.40478516 0.06802734 8.53271484 0.08478516 9.69482422 0.10205078 C11.39832031 0.11558594 11.39832031 0.11558594 13.13623047 0.12939453 C15.94763721 0.1530198 18.7586272 0.18596065 21.56982422 0.22705078 C20.01106798 3.5525976 18.79536498 5.33878938 15.56982422 7.22705078 C13.06201172 7.66845703 13.06201172 7.66845703 10.44482422 7.78955078 C6.53651588 7.85046822 6.53651588 7.85046822 3.56982422 10.22705078 C-3.27505747 11.11435026 -9.29836658 10.3486991 -15.43017578 7.22705078 C-16.64501953 5.11767578 -16.64501953 5.11767578 -17.43017578 3.22705078 C-16.05732422 3.15357422 -16.05732422 3.15357422 -14.65673828 3.07861328 C-13.46822266 3.00384766 -12.27970703 2.92908203 -11.05517578 2.85205078 C-9.87181641 2.78244141 -8.68845703 2.71283203 -7.46923828 2.64111328 C-3.97660843 2.16525369 -3.35199716 0.31317635 0 0 Z " fill="#171921" transform="translate(29.43017578125,46.77294921875)"/>
<path d="M0 0 C5.25216742 0.02870037 9.70181612 0.14343738 14.609375 2.265625 C14.609375 2.925625 14.609375 3.585625 14.609375 4.265625 C15.929375 4.595625 17.249375 4.925625 18.609375 5.265625 C18.609375 5.925625 18.609375 6.585625 18.609375 7.265625 C17.23652344 7.33910156 17.23652344 7.33910156 15.8359375 7.4140625 C14.64742187 7.48882813 13.45890625 7.56359375 12.234375 7.640625 C10.45933594 7.74503906 10.45933594 7.74503906 8.6484375 7.8515625 C5.50375181 7.96779846 5.50375181 7.96779846 3.609375 10.265625 C1.17919922 10.49267578 1.17919922 10.49267578 -1.8359375 10.4609375 C-2.91230469 10.45449219 -3.98867188 10.44804687 -5.09765625 10.44140625 C-6.22558594 10.42464844 -7.35351562 10.40789063 -8.515625 10.390625 C-9.65128906 10.38160156 -10.78695313 10.37257813 -11.95703125 10.36328125 C-14.76843799 10.33965598 -17.57942798 10.30671513 -20.390625 10.265625 C-17.8964908 5.13508044 -17.8964908 5.13508044 -15.390625 3.265625 C-12.76171875 2.82421875 -12.76171875 2.82421875 -9.828125 2.703125 C-5.50734163 2.51376796 -3.80288386 0.42254265 0 0 Z " fill="#181A20" transform="translate(29.390625,2.734375)"/>
<path d="M0 0 C8.25 0 16.5 0 25 0 C23.99246236 5.03768822 22.76917046 7.68769869 19 11 C13.70657172 13.99628016 8.88733433 14.26457113 2.875 14.3125 C1.85345825 14.32095947 1.85345825 14.32095947 0.8112793 14.32958984 C-3.4803638 14.26797482 -7.00937829 13.56019634 -11 12 C-11 11.01 -11 10.02 -11 9 C-10.236875 9.165 -9.47375 9.33 -8.6875 9.5 C-3.81917494 10.16011187 1.09912577 10.4724699 6 10 C6.66 9.34 7.32 8.68 8 8 C10.20703125 7.7265625 10.20703125 7.7265625 12.8125 7.625 C17.35744456 7.26376886 19.78612107 6.42122596 23 3 C23.33 2.34 23.66 1.68 24 1 C16.08 1 8.16 1 0 1 C0 0.67 0 0.34 0 0 Z " fill="#CFBBCA" transform="translate(27,46)"/>
<path d="M0 0 C0.68118896 -0.00563965 1.36237793 -0.0112793 2.06420898 -0.01708984 C6.35567821 0.04453768 9.88454935 0.75237054 13.875 2.3125 C13.875 2.9725 13.875 3.6325 13.875 4.3125 C12.06902344 4.27769531 12.06902344 4.27769531 10.2265625 4.2421875 C8.65104785 4.22343137 7.07552652 4.20523101 5.5 4.1875 C4.7059375 4.17074219 3.911875 4.15398438 3.09375 4.13671875 C1.02007985 4.11914527 -1.05383241 4.20914832 -3.125 4.3125 C-3.785 4.9725 -4.445 5.6325 -5.125 6.3125 C-7.5859375 6.5859375 -7.5859375 6.5859375 -10.5 6.6875 C-14.88691711 6.92632664 -14.88691711 6.92632664 -18.5 9.25 C-19.03625 9.930625 -19.5725 10.61125 -20.125 11.3125 C-22.875 12.5625 -22.875 12.5625 -25.125 13.3125 C-22.54939745 7.52364572 -18.15324586 4.41881592 -12.6875 1.4375 C-8.54407664 0.06178576 -4.32747514 0.03442701 0 0 Z " fill="#F0E6D4" transform="translate(30.125,-0.3125)"/>
<path d="M0 0 C5.61 0.66 11.22 1.32 17 2 C15.68 2.33 14.36 2.66 13 3 C13 3.66 13 4.32 13 5 C8.17639811 5.19294408 4.50353262 4.75747614 0 3 C0 2.01 0 1.02 0 0 Z " fill="#BAB7CD" transform="translate(16,55)"/>
</svg>
